<svg height="512pt" viewBox="0 -16 512 512" width="512pt" xmlns="http://www.w3.org/2000/svg"><path d="m507.605469 325.726562-69.726563-69.726562 1.453125-1.453125c16.910157-16.90625 16.914063-44.417969.023438-61.335937-.019531-.019532-.039063-.039063-.058594-.058594-4.179687-4.175782-9.0625-7.394532-14.378906-9.542969 4.605469-11.648437 5.605469-31.363281-9.6875-46.65625-.039063-.039063-.078125-.078125-.121094-.121094-4.160156-4.132812-9.011719-7.320312-14.292969-9.457031 4.597656-11.628906 5.601563-31.359375-9.675781-46.644531-.011719-.007813-.019531-.019531-.027344-.027344-4.183593-4.183594-9.070312-7.40625-14.394531-9.5625 1.980469-5.019531 3.019531-10.414063 3.019531-15.972656 0-11.589844-4.515625-22.484375-12.707031-30.679688-.003906-.003906-.003906-.007812-.007812-.007812-.003907-.003907-.007813-.007813-.011719-.011719-16.917969-16.917969-44.445313-16.917969-61.363281 0l-1.449219 1.453125-21.527344-21.527344c-4.5625-4.566406-11.542969-5.695312-17.3125-2.8125l-54.902344 27.453125c-16.808593-13.226562-41.5-12.414062-57.378906 3.410156-.027344.023438-.050781.050782-.078125.074219-3.632812 3.632813-15.152344 16.539063-12.265625 36.867188-7.277344 1.863281-14.164063 5.628906-19.847656 11.3125-.003907.007812-.011719.011719-.015625.015625 0 .003906 0 .003906-.003906.003906-15.273438 15.273438-14.316407 34.917969-9.671876 46.65625-5.289062 2.136719-10.148437 5.324219-14.3125 9.460938-.039062.039062-.078124.078124-.117187.117187-15.269531 15.273437-14.3125 34.917969-9.671875 46.65625-5.316406 2.148437-10.203125 5.359375-14.382812 9.535156-.027344.023438-.050782.046875-.074219.074219-16.914063 16.949219-16.929688 44.367188.03125 61.328125l1.453125 1.453125-69.726563 69.726562c-5.859375 5.859376-5.859375 15.355469 0 21.214844 5.855469 5.859375 15.355469 5.855469 21.210938 0l73.421875-73.421875c11.101562 3.289063 28.976562 3.15625 43.054687-10.921875.023438-.023437.050781-.050781.074219-.078125 7.421875-7.445312 11.796875-17.113281 12.527344-27.5 10.414062-.734375 20.109375-5.132812 27.5625-12.585937.003906-.003906.007812-.007813.011718-.011719.003907-.003906.003907-.003906.007813-.007813 7.460937-7.460937 11.855469-17.164062 12.585937-27.585937 10.039063-.714844 19.875-4.886719 27.535157-12.539063.027343-.023437.050781-.046874.074219-.070312 7.648437-7.664062 11.816406-17.496094 12.535156-27.53125 10.410156-.730469 20.101562-5.117188 27.5625-12.566406.023437-.023438.046875-.046875.066406-.070313 14.042969-14.066406 14.191406-31.886719 10.894531-43.023437l53.347657-53.347656c5.21875-5.21875 13.714843-5.21875 18.933593 0 .007813.007812.011719.011718.019531.019531 5.230469 5.230469 5.234376 13.699219 0 18.933593l-35.792968 35.792969c-5.859375 5.859375-5.859375 15.355469 0 21.214844 5.855468 5.855469 15.351562 5.859375 21.210937 0l19.785157-19.78125c5.230468-5.171875 13.652343-5.164063 18.871093.046875.011719.011719.023438.023438.035157.035156 5.21875 5.226563 5.222656 13.691406-.011719 18.925782l-28.125 28.125c-5.855469 5.859374-5.855469 15.355468 0 21.214843 5.859375 5.859375 15.355469 5.855469 21.214843 0l12.058594-12.058593c5.230469-5.230469 13.699219-5.238282 18.933594 0 .027344.027343.054688.050781.082031.078124 5.164063 5.230469 5.15625 13.65625-.0625 18.875l-28.125 28.125c-5.855469 5.855469-5.859375 15.355469 0 21.214844 5.855469 5.855469 15.355469 5.855469 21.214844 0l12.101563-12.105468c5.234374-5.183594 13.667968-5.175782 18.890624.046874.003907 0 .007813.003907.007813.007813.003906 0 .007813.003906.011719.007813 5.21875 5.222656 5.21875 13.714843 0 18.9375l-101.808594 101.804687c-11.816406 11.816406-27.527344 18.324219-44.242188 18.328125-.003906 0-.003906 0-.011718 0h-32.125c-3.980469 0-7.796875 1.578125-10.605469 4.394531l-96.402344 96.398438c-5.855469 5.855469-5.855469 15.355469 0 21.210937 5.859375 5.863282 15.359375 5.859375 21.214844 0l92.007813-92.003906h19.703124l92.007813 92.003906c5.859375 5.859375 15.359375 5.859375 21.214844 0 5.855469-5.855468 5.855469-15.351562 0-21.210937l-76.074219-76.070313c12.839844-4.539062 24.613281-11.921875 34.527344-21.835937l79.140625-79.140625 69.726562 69.726562c5.855469 5.859375 15.355469 5.855469 21.210938 0 5.859375-5.859375 5.859375-15.355468 0-21.214844zm-238.5-292.472656 13.882812 13.878906-26.988281 26.988282-22.878906-22.878906zm-148.21875 208.113282c-.019531.019531-.039063.039062-.058594.058593-5.191406 5.148438-13.632813 5.226563-18.898437-.039062l-8.046876-8.050781c-5.230468-5.230469-5.238281-13.699219-.003906-18.9375.003906-.003907.007813-.007813.011719-.007813 0-.003906.003906-.007813.007813-.007813 5.230468-5.230468 13.699218-5.238281 18.933593-.003906l8.054688 8.050782c5.230469 5.230468 5.234375 13.703124 0 18.9375zm40.164062-40.164063c-.003906.003906-.011719.011719-.015625.015625-5.230468 5.230469-13.699218 5.238281-18.9375 0l-24.117187-24.117188c-5.21875-5.21875-5.226563-13.644531-.0625-18.875.027343-.023437.054687-.050781.082031-.078124 5.226562-5.230469 13.695312-5.234376 18.933594 0l24.117187 24.117187c5.230469 5.230469 5.238281 13.699219 0 18.9375zm40.167969-40.167969c-.003906.003906-.003906.003906-.007812.007813-.003907.003906-.007813.007812-.011719.007812-5.21875 5.222657-13.714844 5.222657-18.933594 0l-40.1875-40.183593c-5.230469-5.230469-5.234375-13.699219 0-18.933594.007813-.007813.011719-.011719.019531-.019532 5.214844-5.214843 13.699219-5.21875 18.921875-.011718l40.199219 40.195312v.003906c5.222656 5.222657 5.21875 13.714844 0 18.933594zm40.167969-40.167968c-.003907.003906-.007813.007812-.011719.011718-.003906 0-.003906.003906-.007812.007813-5.230469 5.230469-13.699219 5.234375-18.9375 0l-48.214844-48.21875c-5.234375-5.230469-5.222656-13.671875-.039063-18.898438.019531-.019531.039063-.035156.058594-.054687 5.226563-5.230469 13.695313-5.238282 18.933594 0l48.214843 48.214844c5.234376 5.230468 5.238282 13.703124.003907 18.9375zm0 0"/></svg>