<svg xmlns="http://www.w3.org/2000/svg" id="Solid" width="512" height="512" viewBox="0 0 512 512"><g><path d="M426.843,365.188l-12.584-20.971a18,18,0,0,0-29.49-1.984l-20.825,26.03h0A18.067,18.067,0,0,0,360,379.508V390a18.021,18.021,0,0,0,18,18h17.858a17.878,17.878,0,0,0,12.727-5.272l15.551-15.55A17.976,17.976,0,0,0,426.843,365.188Z"/><path d="M364.719,241.3a17.878,17.878,0,0,0,7.856,17.366l15.441,10.294A18,18,0,0,0,416,253.983V238.542a18,18,0,0,0-23.692-17.076l-15.441,5.147A17.877,17.877,0,0,0,364.719,241.3Z"/><rect width="16" height="32" x="344" y="312"/><path d="M134.3,341.161a18.411,18.411,0,0,0,3.019.251,18.008,18.008,0,0,0,17.016-23.7L144.9,289.4a17.887,17.887,0,0,0-9.026-10.407l-13.823-6.911h0A18,18,0,0,0,96,288.18v31.349a17.945,17.945,0,0,0,15.041,17.755Z"/><path d="M307.407,229.445,297.062,237.2a12.02,12.02,0,0,0-3.942,14.057l8,20a11.955,11.955,0,0,0,4.485,5.529l4.312,2.874,18.963-47.407-9.4-4.178A12.008,12.008,0,0,0,307.407,229.445Z"/><path d="M157.392,234.078l54.869,45.445a7.994,7.994,0,0,1,2.629,4.107l18.366-2.041A28.107,28.107,0,0,1,261.392,296.9l8.819,17.638A28.031,28.031,0,0,1,257.689,352.1l-4.739,2.369a12,12,0,0,0-6.512,9.036l-4.065,28.455a27.687,27.687,0,0,1-2.437,8.04H258a20.1,20.1,0,0,0,16-8l4.445-5.927a35.935,35.935,0,0,1,22.371-13.834l3.191-76.572q.014-.34.057-.676l-7.333-4.889a27.885,27.885,0,0,1-10.466-12.9l-8-20a28.046,28.046,0,0,1,9.2-32.8l10.345-7.758a28.02,28.02,0,0,1,28.171-3.187l8.849,3.933,1.745-4.362a8,8,0,0,1,2.99-3.685l40.246-26.831a11.97,11.97,0,0,0,5.27-8.659l5.909-53.184a11.939,11.939,0,0,0-3.441-9.81l-6.9-6.9L367.81,161.735a8,8,0,0,1-4.232,5.42l-32,16a8,8,0,0,1-10.733-3.577l-8-16a8,8,0,0,1-.434-6.108L328,110.7V60a12.013,12.013,0,0,0-12-12h-5.754l-6,24,7.515,30.06a8,8,0,0,1-.27,4.749l-24,64a8,8,0,0,1-13.148,2.848l-16-16a8,8,0,0,1-2.327-6.156l6.672-106.752A12.008,12.008,0,0,0,252.22,32.092L240,50.422V160a8,8,0,0,1-13.657,5.657l-16-16a8,8,0,0,1-2.035-3.459l-16-56a7.989,7.989,0,0,1-.069-4.138l5.253-21.015a12.061,12.061,0,0,0-3.156-11.4L184,43.313l-8,8v51.809l15.81,71.143a8,8,0,0,1-2.153,7.392l-16,16a8,8,0,0,1-11.314,0l-24-24A8,8,0,0,1,136,168V143.423a21.969,21.969,0,0,0-16.665-21.343l-1.307-.327-11.837,53.265a11.941,11.941,0,0,0,3.229,11.088ZM232,240h16v16H232Zm-32-40h16v16H200Z"/><path d="M386.138,464H378.2a36.032,36.032,0,0,1-32.9-21.379l-19.063-42.892a19.877,19.877,0,0,0-13.425-11.28l-.71-.178a19.956,19.956,0,0,0-20.856,7.4L286.8,401.6A36.171,36.171,0,0,1,258,416H203.6a19.87,19.87,0,0,0-14.142,5.858l-15.6,15.6A35.766,35.766,0,0,1,148.4,448H134.985a19.962,19.962,0,0,0-16.641,8.906L102.948,480H405.754l-.213-.851A19.97,19.97,0,0,0,386.138,464ZM208,464H192V448h16Zm104-40H296V408h16Z"/><path d="M245.8,340.158l4.739-2.369a12.014,12.014,0,0,0,5.366-16.1l-8.818-17.638a12.045,12.045,0,0,0-12.059-6.56l-21.965,2.441L197.647,400h17.007a12.06,12.06,0,0,0,11.88-10.3l4.065-28.455a28.007,28.007,0,0,1,15.2-21.084Z"/><rect width="16" height="16" x="344" y="280"/></g></svg>