<svg xmlns="http://www.w3.org/2000/svg" width="853.333" height="853.333" preserveAspectRatio="xMidYMid meet" version="1.0" viewBox="0 0 640 640"><metadata>Created by potrace 1.14, written by Peter Selinger 2001-2017</metadata><g fill="#000" stroke="none"><path d="M1627 4803 c-1 0 -51 -4 -110 -7 -131 -8 -223 -22 -329 -51 -10 -3 -26 -7 -35 -9 -10 -2 -38 -12 -63 -21 -25 -9 -49 -17 -55 -18 -21 -5 -83 -34 -172 -79 -81 -41 -118 -65 -237 -148 -70 -49 -248 -228 -292 -292 -16 -24 -35 -47 -41 -51 -7 -4 -13 -15 -13 -22 0 -8 -4 -15 -10 -15 -5 0 -10 -7 -10 -15 0 -8 -4 -15 -9 -15 -5 0 -13 -10 -17 -22 -3 -13 -12 -30 -19 -38 -8 -8 -15 -22 -17 -30 -2 -8 -6 -17 -9 -20 -23 -17 -113 -249 -142 -365 -15 -58 -19 -76 -34 -180 -10 -61 -10 -355 -1 -410 4 -22 10 -58 13 -80 37 -235 179 -542 342 -735 35 -41 184 -191 215 -215 62 -49 139 -105 145 -105 3 0 14 -6 22 -14 29 -26 205 -113 291 -144 91 -33 176 -58 225 -67 17 -2 41 -7 55 -10 69 -14 118 -18 260 -19 162 -1 241 5 325 24 28 7 59 14 70 16 52 10 62 13 90 24 17 6 39 14 49 16 89 17 387 176 449 239 9 8 18 15 21 15 8 0 60 45 109 94 36 36 107 66 107 44 0 -5 4 -7 8 -4 10 6 96 8 225 4 53 -2 97 0 97 3 0 3 19 3 43 0 23 -4 61 -4 85 -1 23 4 42 4 42 1 0 -4 32 -4 71 -1 39 3 73 2 76 -2 2 -5 8 -6 12 -4 6 4 33 5 161 6 28 0 45 -9 86 -47 116 -108 252 -201 397 -271 95 -46 259 -106 317 -116 14 -2 32 -7 40 -10 8 -3 29 -8 45 -10 17 -2 55 -8 85 -12 130 -20 428 -8 545 21 124 30 212 58 254 79 17 9 31 14 31 11 0 -12 227 115 309 173 110 78 280 242 341 328 82 117 105 153 147 235 68 129 135 316 148 407 3 15 7 38 10 52 20 87 28 426 11 495 -4 17 -9 50 -12 74 -2 24 -7 48 -10 53 -3 5 -8 23 -11 40 -9 58 -65 214 -113 314 -50 103 -139 244 -207 324 -42 50 -186 193 -230 228 -186 148 -469 282 -668 317 -16 2 -41 7 -55 10 -49 10 -96 16 -185 21 -150 9 -185 9 -185 3 0 -4 -17 -3 -37 0 -21 4 -55 4 -75 1 -21 -4 -38 -3 -38 2 0 5 -4 7 -9 4 -4 -3 -48 -5 -97 -5 -49 0 -105 -1 -124 -2 -19 -1 -42 -1 -50 0 -8 1 -28 1 -45 0 -16 -1 -37 -1 -45 0 -15 0 -216 1 -235 0 -5 0 -57 0 -115 1 -58 1 -109 0 -115 -1 -5 -1 -13 -1 -18 0 -8 1 -200 1 -227 0 -8 0 -33 0 -55 0 -22 1 -47 1 -55 0 -8 0 -73 0 -145 1 -71 0 -134 0 -140 -1 -5 -1 -13 -1 -18 0 -4 1 -56 1 -115 1 -59 0 -123 0 -142 1 -19 1 -42 1 -50 0 -18 -1 -75 -1 -198 2 -50 1 -92 -1 -92 -4 0 -4 -17 -3 -37 0 -21 4 -55 4 -75 1 -21 -4 -38 -4 -38 -1 0 3 -70 6 -155 6 -85 0 -155 -3 -155 -6 0 -3 -19 -3 -43 1 -24 3 -55 3 -69 -1 -14 -4 -31 -3 -37 1 -7 3 -32 4 -56 0 -25 -4 -47 -5 -49 -2 -4 4 -125 9 -129 5z m5 -728 c6 6 91 7 114 2 37 -9 63 -31 81 -67 9 -19 16 -39 15 -45 -3 -31 -2 -391 1 -473 l2 -54 130 2 c72 0 148 1 170 0 70 0 210 1 220 2 6 1 26 -6 45 -15 64 -31 78 -75 66 -212 -1 -11 1 -37 5 -58 3 -20 3 -39 -1 -42 -4 -2 -5 -18 -2 -35 8 -54 -53 -119 -113 -120 -11 0 -27 0 -35 0 -8 -1 -76 -1 -150 -1 -74 0 -156 0 -181 0 -25 0 -50 1 -55 2 -5 1 -31 1 -57 0 -47 -1 -48 -1 -47 -33 0 -18 0 -42 0 -53 -1 -11 -1 -60 -1 -110 0 -49 -1 -94 -1 -100 0 -5 1 -23 1 -40 1 -16 1 -52 1 -78 0 -26 2 -52 5 -57 3 -5 2 -11 -3 -14 -5 -3 -7 -19 -4 -36 8 -54 -53 -119 -113 -120 -11 0 -29 0 -40 0 -11 -1 -55 -1 -97 0 -42 0 -80 0 -85 -1 -23 -6 -85 16 -107 38 -21 21 -45 98 -38 124 0 4 1 44 2 90 0 46 1 113 1 149 1 36 1 72 1 80 0 8 -2 47 -3 87 l-1 71 -38 4 c-21 2 -48 1 -61 -2 -13 -4 -37 -4 -52 -1 -16 4 -58 4 -95 1 -37 -3 -85 -3 -107 0 -22 3 -65 3 -96 0 -30 -3 -72 -1 -93 5 -80 23 -100 69 -97 220 1 44 2 103 3 132 0 45 5 56 34 84 39 38 94 45 284 37 8 0 47 0 85 1 39 0 77 0 85 0 85 -3 149 4 154 17 3 8 1 14 -5 14 -6 0 -8 4 -5 8 3 5 5 33 5 63 1 30 2 88 2 129 1 41 1 82 1 90 -2 55 -2 172 1 208 3 32 12 51 36 76 30 31 36 33 103 34 38 0 72 3 75 6 3 3 15 1 28 -4 13 -5 25 -7 27 -5z m3802 -27 c62 -26 176 -120 176 -144 0 -8 3 -14 8 -14 4 0 19 -28 32 -62 21 -52 25 -79 24 -158 0 -68 -5 -104 -16 -125 -9 -17 -19 -37 -22 -45 -21 -55 -119 -152 -183 -180 -66 -30 -95 -35 -189 -34 -133 2 -241 63 -318 179 -45 69 -57 107 -61 196 -6 120 29 213 108 292 51 51 77 71 107 83 8 3 25 10 36 16 72 34 211 32 298 -4z m-644 -959 c30 -13 57 -27 58 -31 2 -4 10 -8 17 -8 23 0 117 -115 143 -176 43 -103 36 -260 -16 -343 -90 -145 -210 -212 -367 -206 -76 2 -184 34 -193 57 -2 4 -10 8 -17 8 -23 0 -117 115 -143 176 -50 119 -34 274 39 380 30 44 91 98 144 128 90 50 238 57 335 15z" transform="translate(0.000000,640.000000) scale(0.100000,-0.100000)"/></g></svg>